<svg id="Component_5_1" data-name="Component 5 – 1" xmlns="http://www.w3.org/2000/svg" width="21.001" height="24.001" viewBox="0 0 21.001 24.001">
  <path id="Path_95" data-name="Path 95" d="M20.829,0H33.574L40.33,6.729V22.5a1.5,1.5,0,0,1-1.5,1.5h-18a1.5,1.5,0,0,1-1.5-1.5V1.5A1.5,1.5,0,0,1,20.829,0Z" transform="translate(-19.329)" fill="#e2574c"/>
  <path id="Path_96" data-name="Path 96" d="M209.86,7.1H204.5a1.54,1.54,0,0,1-1.539-1.539V.193Z" transform="translate(-188.881 -0.178)" fill="#b53629"/>
  <path id="Path_97" data-name="Path 97" d="M84.1,142.857a.552.552,0,0,0,0-1.084H82.374a.553.553,0,0,0-.525.612V146.8c0,.394.215.612.506.612s.5-.219.5-.612v-1.212H83.9a.5.5,0,0,0,.485-.55.493.493,0,0,0-.485-.535H82.86v-1.648Zm-5.824-1.084H77.012a.57.57,0,0,0-.585.609v4.425a.565.565,0,0,0,.6.593h1.323a2.509,2.509,0,0,0,2.6-2.734A2.578,2.578,0,0,0,78.272,141.773Zm.061,4.536h-.769v-3.445h.693c1.049,0,1.5.734,1.5,1.747C79.762,145.559,79.314,146.309,78.333,146.309Zm-4.619-4.536H72.465a.538.538,0,0,0-.55.612V146.8c0,.394.226.612.529.612s.529-.219.529-.612v-1.29h.783a1.748,1.748,0,0,0,1.764-1.863A1.768,1.768,0,0,0,73.714,141.773Zm-.021,2.7h-.72V142.81h.72a.841.841,0,0,1,0,1.667Z" transform="translate(-67.728 -130.855)" fill="#fff"/>
</svg>
