<svg xmlns="http://www.w3.org/2000/svg" width="509" height="652.698" viewBox="0 0 509 652.698">
  <g id="Group_23" data-name="Group 23" transform="translate(-931 -1439.302)">
    <g id="Group_15" data-name="Group 15" transform="translate(30.643 27)">
      <g id="Group_22" data-name="Group 22" transform="translate(944.642 1412.302)">
        <g id="Group_12" data-name="Group 12">
          <path id="wave" d="M0,0H363.328s111.591,147.084,57.123,325.884-138.5,25.137-192.9,206.811S0,587.8,0,587.8Z" transform="translate(435.431 630.698) rotate(180)" fill="#752585" opacity="0.23"/>
          <path id="wave-2" data-name="wave" d="M0,0H363.328s111.591,147.084,57.123,325.884-138.5,25.137-192.9,206.811S0,587.8,0,587.8Z" transform="translate(451.43 645.698) rotate(180)" fill="#752585" opacity="0.23"/>
          <path id="wave-3" data-name="wave" d="M0,0H363.328s111.591,147.084,57.123,325.884-138.5,25.137-192.9,206.811S0,587.8,0,587.8Z" transform="translate(464.715 652.698) rotate(180)" fill="#752585"/>
        </g>
      </g>
      <g id="socials" transform="translate(900.357 1833.361)">
        <path id="Shape" d="M3.515,24A3.517,3.517,0,0,1,0,20.484V3.515A3.517,3.517,0,0,1,3.515,0H20.484A3.517,3.517,0,0,1,24,3.515V20.484A3.517,3.517,0,0,1,20.484,24Z" transform="translate(292)" fill="#dfcce3"/>
        <path id="Shape-2" data-name="Shape" d="M3.515,24A3.52,3.52,0,0,1,0,20.484V3.515A3.52,3.52,0,0,1,3.515,0H20.484A3.52,3.52,0,0,1,24,3.515V20.484A3.521,3.521,0,0,1,20.484,24Z" transform="translate(195)" fill="#dfcce3"/>
        <path id="Shape-3" data-name="Shape" d="M4.5,24A4.5,4.5,0,0,1,0,19.5V4.5A4.5,4.5,0,0,1,4.5,0h15A4.5,4.5,0,0,1,24,4.5v15A4.5,4.5,0,0,1,19.5,24Z" transform="translate(97)" fill="#dfcce3"/>
        <path id="Shape-4" data-name="Shape" d="M4.5,24A4.5,4.5,0,0,1,0,19.5V4.5A4.5,4.5,0,0,1,4.5,0h15A4.5,4.5,0,0,1,24,4.5v15A4.5,4.5,0,0,1,19.5,24Z" fill="#752585"/>
      </g>
    </g>
  </g>
</svg>
