<svg xmlns="http://www.w3.org/2000/svg" width="553.887" height="456.241" viewBox="0 0 553.887 456.241"><defs><style>.a,.b{fill:#752585;}.a{opacity:0.59;}</style></defs><g transform="translate(179.098 -5616.898)"><path class="a" d="M97.186,119.146A100,100,0,0,1,228.849,52.34L506.406,157.088a100,100,0,0,1,64.644,96.639l-3.072,99.715L469.922,450.89a100,100,0,0,1-101.017,24.3L120.165,395.45A100,100,0,0,1,54.337,273.47Z" transform="translate(425.459 6096.861) rotate(180)"/><path class="a" d="M97.186,119.146A100,100,0,0,1,228.849,52.34L506.406,157.088a100,100,0,0,1,64.644,96.639l-3.072,99.715L469.922,450.89a100,100,0,0,1-101.017,24.3L120.165,395.45A100,100,0,0,1,54.337,273.47Z" transform="translate(408.459 6107.861) rotate(180)"/><path class="b" d="M97.186,119.146A100,100,0,0,1,228.849,52.34L506.406,157.088a100,100,0,0,1,64.644,96.639l-3.072,99.715L469.922,450.89a100,100,0,0,1-101.017,24.3L120.165,395.45A100,100,0,0,1,54.337,273.47Z" transform="translate(392 6119) rotate(180)"/></g></svg>