<svg id="socials" xmlns="http://www.w3.org/2000/svg" width="24" height="190" viewBox="0 0 24 190">
  <path id="Shape" d="M3.515,25A3.592,3.592,0,0,1,0,21.338V3.662A3.592,3.592,0,0,1,3.515,0H20.484A3.593,3.593,0,0,1,24,3.662V21.338A3.593,3.593,0,0,1,20.484,25Z" transform="translate(0 165)" fill="#752585"/>
  <path id="Shape-2" data-name="Shape" d="M3.515,25A3.6,3.6,0,0,1,0,21.338V3.662A3.6,3.6,0,0,1,3.515,0H20.484A3.6,3.6,0,0,1,24,3.662V21.338A3.6,3.6,0,0,1,20.484,25Z" transform="translate(0 110)" fill="#752585"/>
  <path id="Shape-3" data-name="Shape" d="M4.5,25A4.6,4.6,0,0,1,0,20.312V4.687A4.6,4.6,0,0,1,4.5,0h15A4.6,4.6,0,0,1,24,4.687V20.312A4.6,4.6,0,0,1,19.5,25Z" transform="translate(0 55)" fill="#752585"/>
  <path id="Shape-4" data-name="Shape" d="M4.5,25A4.6,4.6,0,0,1,0,20.312V4.687A4.6,4.6,0,0,1,4.5,0h15A4.6,4.6,0,0,1,24,4.687V20.312A4.6,4.6,0,0,1,19.5,25Z" fill="#752585"/>
</svg>
